<?xml version="1.0" encoding="iso-8859-1"?>
<!-- Generator: Adobe Illustrator 18.0.0, SVG Export Plug-In . SVG Version: 6.00 Build 0)  -->
<!DOCTYPE svg PUBLIC "-//W3C//DTD SVG 1.1//EN" "http://www.w3.org/Graphics/SVG/1.1/DTD/svg11.dtd">
<svg version="1.1" id="Capa_1" xmlns="http://www.w3.org/2000/svg" xmlns:xlink="http://www.w3.org/1999/xlink" x="0px" y="0px"
	 viewBox="0 0 382.402 382.402" style="enable-background:new 0 0 382.402 382.402;" xml:space="preserve">
<path style="fill:#231F20;" d="M381.989,142.631l-15.719-98.925c-2.254-14.193-13.383-25.322-27.576-27.575l-98.924-15.72
	c-10.502-1.669-21.168,1.797-28.682,9.311L9.724,211.086c-12.965,12.966-12.965,33.982,0,46.948l114.645,114.644
	c12.965,12.965,33.98,12.965,46.947-0.002l201.363-201.363C380.193,163.798,383.659,153.132,381.989,142.631z M162.697,346.985
	c-5.066,5.066-13.283,5.066-18.35,0l-108.93-108.93c-5.066-5.067-5.066-13.284,0-18.351c5.064-5.064,13.283-5.066,18.35,0
	l108.93,108.931C167.763,333.701,167.761,341.919,162.697,346.985z M309.237,108.52c-9.764,9.764-25.594,9.763-35.355,0
	c-9.764-9.764-9.766-25.591,0-35.355c9.762-9.764,25.59-9.764,35.355,0C318.999,82.928,318.999,98.757,309.237,108.52z"/>
<g>
</g>
<g>
</g>
<g>
</g>
<g>
</g>
<g>
</g>
<g>
</g>
<g>
</g>
<g>
</g>
<g>
</g>
<g>
</g>
<g>
</g>
<g>
</g>
<g>
</g>
<g>
</g>
<g>
</g>
</svg>
